<svg width="15" height="15" viewBox="0 0 15 15" fill="none" xmlns="http://www.w3.org/2000/svg">
<path d="M7.18249 1.74312H4.84562C2.92374 1.74312 1.71875 3.10374 1.71875 5.02999V10.2262C1.71875 12.1525 2.91812 13.5131 4.84562 13.5131H10.3606C12.2887 13.5131 13.4881 12.1525 13.4881 10.2262V7.70874M9.47805 2.87656L12.3318 5.73031M5.51717 6.82556L10.1878 2.15493C10.7697 1.57368 11.7128 1.57368 12.2947 2.15493L13.0553 2.91556C13.6372 3.49743 13.6372 4.44118 13.0553 5.02243L8.36217 9.71556C8.1078 9.96993 7.7628 10.1131 7.4028 10.1131H5.06155L5.1203 7.75056C5.12905 7.40306 5.27092 7.07181 5.51717 6.82556Z" stroke="#FEFEFE" stroke-width="1.2" stroke-linecap="round" stroke-linejoin="round"/>
</svg>
