<svg width="15" height="15" viewBox="0 0 15 15" fill="none" xmlns="http://www.w3.org/2000/svg">
<path fill-rule="evenodd" clip-rule="evenodd" d="M2.85323 1.875C2.31317 1.875 1.875 2.32054 1.875 2.869V3.45403C1.875 3.86029 2.02949 4.25099 2.30585 4.54486L5.33444 7.7652L5.33577 7.76317C5.92044 8.36174 6.24941 9.17089 6.24941 10.0146V12.872C6.24941 13.0629 6.44918 13.1848 6.615 13.0948L8.33972 12.1549C8.60009 12.0127 8.76258 11.7365 8.76258 11.4365V10.0071C8.76258 9.16818 9.08688 8.36242 9.66623 7.7652L12.6948 4.54486C12.9705 4.25099 13.125 3.86029 13.125 3.45403V2.869C13.125 2.32054 12.6875 1.875 12.1474 1.875H2.85323Z" stroke="#1D1E20" stroke-linecap="round" stroke-linejoin="round"/>
</svg>
