<svg width="9" height="8" viewBox="0 0 9 8" fill="none" xmlns="http://www.w3.org/2000/svg">
<path d="M3.1549 0.690998C3.45425 -0.230312 4.75766 -0.230314 5.05701 0.690997L5.34078 1.56435C5.47466 1.97637 5.85861 2.25534 6.29184 2.25534H7.21014C8.17887 2.25534 8.58164 3.49495 7.79793 4.06435L7.05501 4.60412C6.70452 4.85876 6.55786 5.31013 6.69173 5.72215L6.9755 6.59551C7.27486 7.51682 6.22038 8.28294 5.43666 7.71354L4.69374 7.17378C4.34326 6.91913 3.86866 6.91913 3.51817 7.17378L2.77525 7.71354C1.99154 8.28294 0.937057 7.51682 1.23641 6.59551L1.52018 5.72215C1.65405 5.31013 1.5074 4.85876 1.15691 4.60412L0.413988 4.06435C-0.369725 3.49495 0.0330496 2.25534 1.00177 2.25534H1.92007C2.3533 2.25534 2.73726 1.97638 2.87113 1.56435L3.1549 0.690998Z" fill="#FF981F"/>
</svg>
