<svg width="9" height="8" viewBox="0 0 9 8" fill="none" xmlns="http://www.w3.org/2000/svg">
<path d="M3.39307 0.767853C3.61783 0.0775085 4.59409 0.0775092 4.81885 0.767853L5.10303 1.64188C5.27041 2.15666 5.75019 2.50501 6.2915 2.50516H7.21045C7.93677 2.50542 8.23858 3.43559 7.65088 3.86258L6.90771 4.40164C6.4698 4.71989 6.2865 5.28422 6.45361 5.7991L6.73779 6.67313C6.96193 7.36396 6.17118 7.938 5.5835 7.51102L4.84033 6.97195C4.40223 6.65368 3.80968 6.65368 3.37158 6.97195L2.62842 7.51102C2.04073 7.938 1.24998 7.36395 1.47412 6.67313L1.7583 5.7991C1.92542 5.28422 1.74211 4.71988 1.3042 4.40164L0.561035 3.86258C-0.0266672 3.43559 0.275145 2.50542 1.00146 2.50516H1.92041C2.46172 2.50501 2.94151 2.15666 3.10889 1.64188L3.39307 0.767853Z" stroke="#8F959E" stroke-width="0.5"/>
</svg>
