<svg width="22" height="25" viewBox="0 0 22 25" fill="none" xmlns="http://www.w3.org/2000/svg">
<path d="M10.5417 13.4708C10.5675 13.4708 10.5934 13.4708 10.6245 13.4708C10.6348 13.4708 10.6452 13.4708 10.6556 13.4708C10.6711 13.4708 10.6918 13.4708 10.7073 13.4708C12.2242 13.4449 13.4512 12.9117 14.3572 11.8918C16.3504 9.64495 16.019 5.79318 15.9828 5.42561C15.8534 2.66621 14.5487 1.34605 13.4719 0.729972C12.6694 0.269209 11.7324 0.0207084 10.6866 0H10.6504C10.6452 0 10.6348 0 10.6297 0H10.5986C10.024 0 8.89534 0.0931879 7.81333 0.709263C6.72614 1.32534 5.4008 2.6455 5.27137 5.42561C5.23513 5.79318 4.9038 9.64495 6.89698 11.8918C7.7978 12.9117 9.02477 13.4449 10.5417 13.4708ZM6.65366 5.55503C6.65366 5.5395 6.65884 5.52397 6.65884 5.51362C6.82968 1.80163 9.46482 1.403 10.5934 1.403H10.6141C10.6245 1.403 10.64 1.403 10.6556 1.403C12.0534 1.43406 14.4297 2.00354 14.5902 5.51362C14.5902 5.52915 14.5902 5.54468 14.5953 5.55503C14.6005 5.59127 14.9629 9.1117 13.3166 10.9651C12.6643 11.7003 11.7945 12.0627 10.6504 12.073C10.64 12.073 10.6348 12.073 10.6245 12.073C10.6141 12.073 10.609 12.073 10.5986 12.073C9.45965 12.0627 8.58472 11.7003 7.93758 10.9651C6.29644 9.12206 6.64848 5.5861 6.65366 5.55503Z" fill="#1D1E20"/>
<path d="M21.2638 19.8592C21.2638 19.854 21.2638 19.8488 21.2638 19.8436C21.2638 19.8022 21.2586 19.7608 21.2586 19.7142C21.2275 18.6891 21.1602 16.2922 18.9134 15.5259C18.8978 15.5208 18.8771 15.5156 18.8616 15.5104C16.5267 14.915 14.5853 13.569 14.5646 13.5535C14.2488 13.3308 13.8139 13.4085 13.5913 13.7243C13.3687 14.0401 13.4463 14.475 13.7621 14.6976C13.8502 14.7597 15.9106 16.1938 18.4888 16.8565C19.6951 17.2862 19.8297 18.5753 19.8659 19.7556C19.8659 19.8022 19.8659 19.8436 19.8711 19.8851C19.8763 20.351 19.8452 21.0706 19.7624 21.4848C18.9237 21.9611 15.6363 23.6074 10.6352 23.6074C5.6548 23.6074 2.34664 21.9559 1.50277 21.4796C1.41993 21.0654 1.3837 20.3458 1.39405 19.8799C1.39405 19.8385 1.39923 19.797 1.39923 19.7505C1.43547 18.5701 1.57007 17.281 2.77634 16.8513C5.35453 16.1886 7.41502 14.7494 7.50303 14.6924C7.81883 14.4698 7.89649 14.0349 7.67387 13.7191C7.45126 13.4033 7.01638 13.3257 6.70058 13.5483C6.67987 13.5638 4.74881 14.9099 2.40358 15.5052C2.38288 15.5104 2.36734 15.5156 2.35181 15.5208C0.104951 16.2922 0.0376489 18.6891 0.00658624 19.709C0.00658624 19.7556 0.00658613 19.797 0.00140902 19.8385C0.00140902 19.8436 0.00140902 19.8488 0.00140902 19.854C-0.00376808 20.1232 -0.00894507 21.5055 0.265441 22.1992C0.317212 22.3338 0.4104 22.4477 0.534651 22.5254C0.689964 22.6289 4.4123 25 10.6404 25C16.8684 25 20.5907 22.6237 20.7461 22.5254C20.8651 22.4477 20.9635 22.3338 21.0153 22.1992C21.2741 21.5107 21.2689 20.1284 21.2638 19.8592Z" fill="#1D1E20"/>
</svg>
