<svg width="25" height="25" viewBox="0 0 25 25" fill="none" xmlns="http://www.w3.org/2000/svg">
<path fill-rule="evenodd" clip-rule="evenodd" d="M21.6734 7.94131L21.0251 6.81621C20.4766 5.86421 19.261 5.5358 18.3077 6.08205C17.854 6.34936 17.3125 6.4252 16.8027 6.29285C16.2929 6.16048 15.8568 5.8308 15.5903 5.37647C15.419 5.0877 15.3269 4.75879 15.3233 4.42301C15.3388 3.88465 15.1357 3.36296 14.7603 2.97679C14.3849 2.59061 13.8692 2.37282 13.3306 2.37305H12.0244C11.4968 2.37304 10.9908 2.58329 10.6186 2.95728C10.2464 3.33128 10.0386 3.83816 10.0411 4.3658C10.0255 5.45517 9.13787 6.33006 8.04838 6.32994C7.7126 6.32645 7.38368 6.23436 7.09491 6.06297C6.14161 5.51672 4.92603 5.84514 4.37751 6.79715L3.68148 7.94131C3.13363 8.89212 3.45758 10.1069 4.40612 10.6587C5.02269 11.0147 5.40251 11.6726 5.40251 12.3845C5.40251 13.0964 5.02269 13.7542 4.40612 14.1103C3.45878 14.6583 3.13448 15.8702 3.68148 16.8181L4.33938 17.9528C4.59638 18.4165 5.02759 18.7587 5.53758 18.9036C6.04757 19.0486 6.59428 18.9843 7.05677 18.7251C7.51141 18.4598 8.05319 18.3871 8.56168 18.5232C9.07018 18.6592 9.50324 18.9928 9.76463 19.4497C9.93601 19.7385 10.0281 20.0674 10.0316 20.4032C10.0316 21.5037 10.9237 22.3959 12.0244 22.3959H13.3306C14.4275 22.3959 15.3181 21.5096 15.3233 20.4127C15.3208 19.8834 15.53 19.3751 15.9042 19.0008C16.2784 18.6265 16.7869 18.4174 17.3161 18.42C17.6511 18.4289 17.9786 18.5206 18.2696 18.687C19.2204 19.2348 20.4352 18.9108 20.987 17.9623L21.6734 16.8181C21.9392 16.3621 22.0122 15.8188 21.8761 15.3087C21.7401 14.7987 21.4063 14.3639 20.9488 14.1007C20.4912 13.8375 20.1576 13.4027 20.0216 12.8927C19.8855 12.3827 19.9584 11.8395 20.2242 11.3833C20.397 11.0816 20.6472 10.8315 20.9488 10.6587C21.8917 10.1072 22.2149 8.89952 21.6734 7.95085V7.94131Z" stroke="#1D1E20" stroke-width="1.5" stroke-linecap="round" stroke-linejoin="round"/>
<path d="M12.6823 15.1304C14.1989 15.1304 15.4283 13.901 15.4283 12.3844C15.4283 10.8679 14.1989 9.63843 12.6823 9.63843C11.1657 9.63843 9.93628 10.8679 9.93628 12.3844C9.93628 13.901 11.1657 15.1304 12.6823 15.1304Z" stroke="#1D1E20" stroke-width="1.5" stroke-linecap="round" stroke-linejoin="round"/>
</svg>
